<?xml version="1.0" encoding="UTF-8" ?>
<!DOCTYPE svg PUBLIC "-//W3C//DTD SVG 1.1//EN" "http://www.w3.org/Graphics/SVG/1.1/DTD/svg11.dtd">
<svg width="727pt" height="314pt" viewBox="0 0 727 314" version="1.1" xmlns="http://www.w3.org/2000/svg">
<g id="#ed1c24ff">
<path fill="#ed1c24" opacity="1.00" d=" M 8.20 2.17 C 12.49 0.10 17.37 0.69 21.97 0.62 C 81.98 0.63 141.98 0.63 201.99 0.62 C 205.64 0.82 210.28 1.04 212.35 4.59 C 214.41 7.67 216.69 11.04 216.51 14.92 C 216.50 35.05 216.49 55.17 216.51 75.30 C 199.83 91.02 183.00 106.63 167.71 123.74 C 149.63 144.12 132.80 167.21 127.14 194.38 C 115.03 175.82 99.78 159.34 82.30 145.72 C 58.10 126.71 30.12 113.13 1.44 102.31 C 1.42 72.88 1.46 43.44 1.42 14.01 C 1.23 9.23 3.75 4.20 8.20 2.17 M 84.57 20.44 C 64.27 34.14 43.89 47.72 23.78 61.70 C 32.04 62.04 40.26 63.07 48.43 64.33 C 46.73 64.67 45.01 64.94 43.30 65.21 C 43.36 68.51 43.34 71.82 43.90 75.07 C 46.07 88.12 48.28 101.17 50.52 114.21 C 55.26 117.27 60.17 120.09 65.43 122.15 C 60.46 102.96 55.33 83.82 50.37 64.64 C 55.77 63.36 61.05 65.12 66.22 66.50 C 65.42 69.56 64.54 72.69 64.78 75.89 C 65.76 92.35 75.36 108.04 89.57 116.39 C 101.55 123.46 116.81 124.97 129.79 119.80 C 144.37 114.14 155.68 101.07 159.54 85.95 C 161.44 78.18 161.73 69.91 160.05 62.08 C 158.52 54.97 153.52 49.43 150.71 42.90 C 151.97 41.35 153.70 40.28 155.36 39.21 C 164.99 33.20 174.97 27.73 184.34 21.31 C 157.88 20.58 131.42 19.72 104.95 18.97 C 99.27 18.97 93.58 18.82 87.90 19.01 C 86.62 18.96 85.60 19.84 84.57 20.44 Z" />
<path fill="#ed1c24" opacity="1.00" d=" M 146.87 231.69 C 164.68 188.65 186.84 147.03 216.50 110.91 C 216.51 145.62 216.48 180.32 216.52 215.03 C 216.68 219.28 215.14 223.41 213.00 227.01 C 211.52 229.43 209.14 231.77 206.09 231.66 C 186.35 231.74 166.61 231.66 146.87 231.69 Z" />
<path fill="#ed1c24" opacity="1.00" d=" M 1.44 123.66 C 29.27 137.02 55.81 153.56 78.53 174.57 C 95.76 190.57 110.81 209.56 119.30 231.68 C 83.51 231.70 47.73 231.68 11.94 231.70 C 9.01 232.12 6.92 229.75 5.21 227.74 C 3.23 225.25 1.37 222.33 1.44 219.03 C 1.43 187.24 1.44 155.45 1.44 123.66 Z" />
<path fill="#ed1c24" opacity="1.00" d=" M 244.00 192.25 C 253.17 192.25 262.34 192.24 271.50 192.25 C 271.50 195.00 271.50 197.75 271.50 200.50 C 268.41 200.50 265.33 200.50 262.25 200.50 C 262.25 216.58 262.25 232.67 262.25 248.75 C 259.25 248.75 256.25 248.75 253.25 248.75 C 253.25 232.67 253.25 216.59 253.25 200.50 C 250.16 200.50 247.08 200.50 244.00 200.50 C 244.00 197.75 244.00 195.00 244.00 192.25 Z" />
<path fill="#ed1c24" opacity="1.00" d=" M 275.00 192.25 C 283.08 192.25 291.17 192.25 299.25 192.25 C 299.25 195.00 299.25 197.75 299.25 200.50 C 294.16 200.50 289.08 200.50 284.00 200.50 C 284.00 205.42 284.00 210.33 284.00 215.25 C 288.00 215.25 292.00 215.25 296.00 215.25 C 296.00 218.00 296.00 220.75 296.00 223.50 C 292.00 223.50 288.00 223.50 284.00 223.50 C 284.00 229.17 283.99 234.84 284.01 240.51 C 289.09 240.49 294.17 240.50 299.25 240.50 C 299.25 243.25 299.25 246.00 299.25 248.75 C 291.17 248.75 283.08 248.75 275.00 248.75 C 275.00 229.92 275.00 211.08 275.00 192.25 Z" />
<path fill="#ed1c24" opacity="1.00" d=" M 304.07 198.97 C 307.53 188.93 324.59 188.77 328.21 198.76 C 329.71 202.83 329.17 207.25 329.25 211.50 C 326.42 211.50 323.59 211.50 320.76 211.50 C 320.60 208.31 321.24 204.94 320.10 201.89 C 318.55 198.43 312.46 199.32 312.35 203.26 C 312.07 213.50 312.36 223.75 312.22 233.99 C 312.33 235.91 311.92 238.09 313.14 239.76 C 315.04 242.08 319.39 241.59 320.33 238.59 C 321.14 234.95 320.63 231.19 320.74 227.50 C 323.57 227.50 326.41 227.50 329.24 227.50 C 329.06 232.63 329.99 238.06 327.90 242.92 C 323.46 252.69 305.78 251.56 303.65 240.56 C 302.32 232.78 303.29 224.82 303.00 216.97 C 303.23 210.98 302.28 204.79 304.07 198.97 Z" />
<path fill="#ed1c24" opacity="1.00" d=" M 334.75 192.25 C 337.75 192.25 340.75 192.25 343.75 192.25 C 343.75 199.91 343.75 207.58 343.75 215.25 C 346.83 215.25 349.92 215.25 353.00 215.25 C 353.00 207.58 353.00 199.91 353.00 192.25 C 356.00 192.25 359.00 192.25 362.00 192.25 C 362.00 211.08 362.00 229.92 362.00 248.75 C 359.00 248.75 356.00 248.75 353.00 248.75 C 353.00 240.33 353.00 231.91 353.00 223.50 C 349.91 223.50 346.83 223.50 343.75 223.50 C 343.75 231.92 343.75 240.33 343.75 248.75 C 340.75 248.75 337.75 248.75 334.75 248.76 C 334.75 229.92 334.75 211.08 334.75 192.25 Z" />
<path fill="#ed1c24" opacity="1.00" d=" M 368.25 192.25 C 371.97 192.25 375.69 192.25 379.42 192.25 C 382.18 203.45 385.33 214.56 387.78 225.84 C 388.24 214.65 387.89 203.44 388.00 192.25 C 390.66 192.25 393.33 192.25 396.00 192.25 C 396.00 211.08 396.00 229.92 396.00 248.76 C 392.91 248.75 389.83 248.75 386.74 248.75 C 383.24 235.22 379.72 221.69 376.29 208.14 C 376.20 221.68 376.27 235.22 376.25 248.75 C 373.58 248.75 370.91 248.75 368.25 248.75 C 368.25 229.92 368.25 211.08 368.25 192.25 Z" />
<path fill="#ed1c24" opacity="1.00" d=" M 410.24 192.27 C 414.97 190.84 420.65 191.10 424.66 194.25 C 427.88 196.76 429.10 201.01 429.01 204.96 C 429.00 215.30 428.99 225.65 429.01 236.00 C 429.14 239.94 427.82 244.14 424.67 246.69 C 417.45 252.40 403.71 249.51 402.47 239.35 C 401.93 227.90 402.41 216.40 402.24 204.93 C 401.92 199.59 404.85 193.83 410.24 192.27 M 413.33 200.30 C 411.61 201.11 411.29 203.29 411.26 205.00 C 411.20 214.66 411.30 224.32 411.22 233.98 C 411.28 236.10 410.98 238.65 412.74 240.24 C 415.28 242.54 420.10 240.73 419.92 237.10 C 420.14 227.40 419.90 217.69 420.03 207.98 C 419.93 205.88 420.28 203.62 419.30 201.68 C 418.21 199.59 415.26 199.25 413.33 200.30 Z" />
<path fill="#ed1c24" opacity="1.00" d=" M 435.00 192.25 C 438.00 192.25 441.00 192.25 444.00 192.25 C 444.00 208.33 443.99 224.42 444.00 240.50 C 448.83 240.50 453.66 240.50 458.50 240.50 C 458.50 243.25 458.50 246.00 458.50 248.75 C 450.67 248.76 442.83 248.75 435.00 248.75 C 435.00 229.92 435.00 211.08 435.00 192.25 Z" />
<path fill="#ed1c24" opacity="1.00" d=" M 469.41 192.44 C 473.49 191.01 478.16 191.11 482.15 192.82 C 486.69 194.90 488.86 200.10 488.75 204.88 C 488.76 215.27 488.75 225.67 488.76 236.06 C 488.85 240.84 486.75 246.12 482.11 248.11 C 476.74 250.40 469.54 250.14 465.30 245.74 C 462.00 242.41 461.80 237.40 461.74 233.00 C 461.81 223.71 461.64 214.41 461.82 205.11 C 461.81 199.97 464.18 194.19 469.41 192.44 M 473.26 200.20 C 471.01 201.12 470.95 203.86 470.98 205.91 C 471.04 215.99 470.96 226.06 471.01 236.13 C 470.89 238.16 471.78 240.69 474.05 241.06 C 476.77 242.02 479.75 239.79 479.67 236.94 C 479.81 225.98 479.81 215.00 479.67 204.04 C 479.89 200.72 476.06 198.67 473.26 200.20 Z" />
<path fill="#ed1c24" opacity="1.00" d=" M 499.38 193.50 C 504.72 190.46 512.40 190.57 517.04 194.90 C 521.16 199.09 520.54 205.37 520.50 210.75 C 517.67 210.75 514.84 210.75 512.02 210.76 C 511.92 207.96 512.31 205.08 511.57 202.35 C 510.64 199.23 506.09 198.94 504.15 201.22 C 502.84 203.24 503.33 205.76 503.22 208.02 C 503.37 217.92 503.06 227.82 503.36 237.71 C 503.57 241.90 510.36 242.53 511.58 238.63 C 512.47 234.16 511.81 229.53 512.00 225.00 C 510.49 224.99 508.99 224.99 507.50 224.99 C 507.49 222.24 507.50 219.50 507.50 216.75 C 511.83 216.75 516.16 216.75 520.50 216.75 C 520.46 223.49 520.56 230.23 520.48 236.97 C 520.45 241.41 518.35 246.20 514.12 248.10 C 509.70 250.03 504.35 250.03 500.03 247.84 C 495.77 245.61 494.18 240.52 494.08 236.01 C 493.87 227.34 494.08 218.66 493.98 209.99 C 493.89 204.21 493.94 197.04 499.38 193.50 Z" />
<path fill="#ed1c24" opacity="1.00" d=" M 523.14 192.24 C 526.36 192.25 529.59 192.25 532.82 192.25 C 534.84 199.07 536.83 205.91 538.78 212.75 C 540.80 205.92 542.77 199.07 544.79 192.24 C 547.73 192.24 550.69 192.25 553.64 192.26 C 550.59 201.88 547.28 211.42 544.13 221.01 C 543.49 222.93 542.92 224.90 542.99 226.95 C 542.97 234.22 543.02 241.49 543.00 248.75 C 539.91 248.75 536.83 248.75 533.75 248.75 C 533.63 240.64 533.98 232.52 533.61 224.42 C 530.35 213.63 526.62 202.97 523.14 192.24 Z" />
<path fill="#ed1c24" opacity="1.00" d=" M 570.00 192.24 C 573.75 192.25 577.50 192.24 581.26 192.27 C 584.14 203.27 586.77 214.33 589.77 225.30 C 589.73 214.28 589.75 203.26 589.75 192.25 C 592.41 192.25 595.08 192.25 597.75 192.25 C 597.75 211.08 597.75 229.92 597.75 248.75 C 594.69 248.75 591.64 248.75 588.59 248.75 C 585.07 235.14 581.48 221.54 578.11 207.89 C 577.87 221.51 578.06 235.13 578.00 248.75 C 575.33 248.75 572.66 248.75 570.00 248.75 C 570.00 229.92 570.00 211.08 570.00 192.24 Z" />
<path fill="#ed1c24" opacity="1.00" d=" M 604.49 192.26 C 612.58 192.24 620.66 192.25 628.75 192.25 C 628.75 195.00 628.75 197.75 628.75 200.50 C 623.75 200.50 618.75 200.50 613.75 200.50 C 613.75 205.42 613.75 210.33 613.75 215.25 C 617.75 215.25 621.75 215.25 625.75 215.25 C 625.75 218.00 625.75 220.75 625.75 223.50 C 621.75 223.50 617.75 223.50 613.75 223.50 C 613.75 229.17 613.75 234.83 613.75 240.50 C 618.75 240.50 623.75 240.50 628.75 240.50 C 628.75 243.25 628.75 246.00 628.75 248.75 C 620.67 248.75 612.58 248.75 604.50 248.76 C 604.49 229.92 604.51 211.09 604.49 192.26 Z" />
<path fill="#ed1c24" opacity="1.00" d=" M 633.25 192.25 C 639.15 192.49 645.16 191.66 650.99 192.81 C 656.52 193.90 659.74 199.62 659.50 204.97 C 659.34 210.78 660.63 217.62 656.31 222.31 C 652.71 226.18 647.06 225.84 642.25 225.78 C 642.25 233.44 642.25 241.09 642.25 248.75 C 639.24 248.75 636.24 248.75 633.25 248.75 C 633.25 229.92 633.25 211.08 633.25 192.25 M 642.27 200.41 C 642.24 206.13 642.23 211.86 642.27 217.58 C 644.90 217.23 649.38 218.51 650.21 214.93 C 650.71 211.00 650.71 206.95 650.20 203.03 C 649.18 199.66 644.91 200.72 642.27 200.41 Z" />
<path fill="#ed1c24" opacity="1.00" d=" M 671.12 192.22 C 675.17 192.26 679.23 192.24 683.30 192.25 C 686.38 211.09 689.39 229.94 692.51 248.77 C 689.46 248.74 686.41 248.75 683.37 248.78 C 682.86 245.10 682.32 241.43 681.81 237.77 C 678.55 237.75 675.29 237.75 672.04 237.75 C 671.46 241.41 670.92 245.08 670.41 248.76 C 667.59 248.75 664.78 248.75 661.97 248.77 C 664.97 229.91 668.12 211.08 671.12 192.22 M 676.84 202.62 C 675.63 211.66 674.37 220.70 673.09 229.74 C 675.62 229.74 678.16 229.75 680.70 229.76 C 679.37 220.72 678.18 211.66 676.84 202.62 Z" />
<path fill="#ed1c24" opacity="1.00" d=" M 696.49 192.27 C 699.57 192.24 702.66 192.24 705.75 192.25 C 705.75 208.33 705.75 224.41 705.75 240.50 C 710.50 240.50 715.25 240.50 720.00 240.50 C 719.99 243.25 719.99 246.00 720.00 248.76 C 712.16 248.75 704.33 248.75 696.50 248.76 C 696.49 229.93 696.52 211.10 696.49 192.27 Z" />
</g>
<g id="#0066b3ff">
<path fill="#0066b3" opacity="1.00" d=" M 294.20 11.29 C 297.41 4.22 307.24 3.17 313.45 6.60 C 318.58 9.64 318.99 16.18 319.10 21.50 C 316.18 21.50 313.25 21.50 310.33 21.51 C 310.21 19.43 310.44 17.28 309.81 15.27 C 308.41 12.01 302.78 12.39 302.07 15.99 C 300.54 21.19 304.31 25.85 307.98 29.04 C 313.08 33.40 318.55 38.69 318.96 45.83 C 319.58 51.59 318.24 58.76 312.43 61.44 C 307.31 63.63 300.58 63.44 296.27 59.61 C 292.47 55.90 292.54 50.19 292.41 45.27 C 295.34 45.25 298.26 45.25 301.19 45.25 C 301.35 47.57 300.91 50.03 301.73 52.26 C 302.83 54.98 306.61 55.11 308.69 53.49 C 310.80 50.57 310.26 46.42 308.65 43.38 C 305.59 38.24 300.14 35.19 296.63 30.41 C 292.39 25.13 291.54 17.45 294.20 11.29 Z" />
<path fill="#0066b3" opacity="1.00" d=" M 457.75 5.50 C 465.83 5.50 473.91 5.50 482.00 5.50 C 481.99 8.33 482.00 11.17 482.00 14.00 C 476.92 14.00 471.83 14.00 466.75 14.00 C 466.75 18.83 466.75 23.67 466.75 28.50 C 470.75 28.50 474.75 28.50 478.75 28.50 C 478.75 31.25 478.75 34.00 478.75 36.75 C 474.75 36.75 470.75 36.75 466.75 36.75 C 466.75 42.42 466.75 48.08 466.75 53.75 C 471.83 53.75 476.92 53.75 482.00 53.75 C 482.00 56.50 482.00 59.25 482.00 62.00 C 473.92 62.00 465.83 62.00 457.75 62.00 C 457.75 43.17 457.75 24.33 457.75 5.50 Z" />
<path fill="#0066b3" opacity="1.00" d=" M 506.47 5.74 C 511.16 4.17 516.72 4.32 520.89 7.18 C 524.30 9.59 525.80 13.92 525.75 17.97 C 525.75 28.65 525.76 39.34 525.75 50.03 C 525.83 55.11 522.93 60.37 517.92 61.98 C 512.64 63.53 506.01 63.18 502.09 58.88 C 499.70 56.19 498.91 52.49 498.98 48.99 C 499.04 38.31 498.93 27.62 499.03 16.94 C 499.05 12.19 501.90 7.39 506.47 5.74 M 510.34 13.43 C 508.65 14.24 507.95 16.17 508.03 17.94 C 507.92 27.65 508.06 37.35 507.97 47.06 C 508.07 49.04 507.73 51.28 508.92 53.03 C 511.16 55.82 516.62 54.54 516.63 50.68 C 516.85 39.51 516.81 28.32 516.65 17.15 C 516.68 13.96 513.08 12.10 510.34 13.43 Z" />
<path fill="#0066b3" opacity="1.00" d=" M 531.75 5.50 C 539.58 5.50 547.42 5.50 555.25 5.50 C 555.24 8.33 555.24 11.17 555.25 14.00 C 550.41 14.00 545.58 14.00 540.75 14.00 C 540.75 19.08 540.75 24.17 540.75 29.25 C 544.58 29.25 548.41 29.25 552.25 29.25 C 552.24 32.00 552.24 34.75 552.25 37.51 C 548.41 37.50 544.58 37.50 540.75 37.50 C 540.75 45.67 540.75 53.83 540.75 62.00 C 537.75 62.00 534.75 62.00 531.75 62.00 C 531.75 43.17 531.75 24.33 531.75 5.50 Z" />
<path fill="#0066b3" opacity="1.00" d=" M 244.00 5.50 C 247.00 5.50 250.00 5.50 253.00 5.50 C 253.00 24.33 253.00 43.17 253.00 62.00 C 250.00 62.00 247.00 62.00 244.00 62.00 C 244.00 43.17 244.00 24.33 244.00 5.50 Z" />
<path fill="#0066b3" opacity="1.00" d=" M 259.50 5.50 C 263.25 5.50 267.00 5.49 270.76 5.52 C 273.54 16.43 276.20 27.37 279.16 38.23 C 279.36 27.32 279.19 16.41 279.25 5.50 C 281.92 5.50 284.58 5.50 287.25 5.50 C 287.25 24.33 287.25 43.17 287.25 62.00 C 284.16 62.00 281.08 62.00 278.00 62.00 C 274.55 48.45 271.05 34.90 267.53 21.37 C 267.45 34.91 267.52 48.46 267.50 62.00 C 264.83 62.00 262.16 62.00 259.50 62.00 C 259.50 43.17 259.50 24.33 259.50 5.50 Z" />
<path fill="#0066b3" opacity="1.00" d=" M 321.75 5.50 C 330.83 5.50 339.92 5.50 349.00 5.50 C 349.00 8.33 349.00 11.17 349.00 14.00 C 346.00 14.00 343.00 14.00 340.00 14.00 C 340.00 30.00 340.00 46.00 340.00 62.00 C 336.91 62.00 333.83 62.00 330.75 62.00 C 330.75 46.00 330.75 30.00 330.75 14.00 C 327.75 14.00 324.75 14.00 321.75 14.00 C 321.75 11.17 321.75 8.33 321.75 5.50 Z" />
<path fill="#0066b3" opacity="1.00" d=" M 352.50 5.50 C 355.58 5.50 358.67 5.50 361.75 5.50 C 361.75 24.33 361.75 43.17 361.75 62.00 C 358.67 62.00 355.58 62.00 352.50 62.00 C 352.50 43.17 352.50 24.33 352.50 5.50 Z" />
<path fill="#0066b3" opacity="1.00" d=" M 365.75 5.50 C 374.92 5.50 384.08 5.50 393.25 5.50 C 393.25 8.33 393.25 11.17 393.25 14.00 C 390.16 14.00 387.08 14.00 384.00 14.00 C 384.00 30.00 384.00 46.00 384.00 62.00 C 381.00 62.00 378.00 62.00 375.00 62.00 C 375.00 46.00 375.00 30.00 375.00 14.00 C 371.91 14.00 368.83 14.00 365.75 14.00 C 365.75 11.17 365.75 8.33 365.75 5.50 Z" />
<path fill="#0066b3" opacity="1.00" d=" M 396.50 5.50 C 399.50 5.50 402.50 5.50 405.50 5.50 C 405.49 19.35 405.52 33.20 405.48 47.06 C 405.52 49.17 405.39 51.49 406.68 53.31 C 408.57 55.10 412.22 55.04 413.59 52.62 C 414.36 50.85 414.21 48.85 414.28 46.96 C 414.21 33.15 414.29 19.34 414.23 5.52 C 417.15 5.50 420.07 5.50 423.00 5.49 C 422.99 20.00 423.02 34.51 422.99 49.01 C 423.01 53.84 421.19 59.41 416.41 61.46 C 411.70 63.48 405.84 63.36 401.46 60.56 C 397.74 58.03 396.51 53.24 396.50 48.98 C 396.49 34.49 396.50 19.99 396.50 5.50 Z" />
<path fill="#0066b3" opacity="1.00" d=" M 426.75 5.50 C 435.92 5.50 445.08 5.50 454.25 5.50 C 454.24 8.33 454.25 11.17 454.25 14.00 C 451.16 14.00 448.08 14.00 445.00 14.00 C 445.00 30.00 445.00 46.00 445.00 62.00 C 442.00 62.00 439.00 62.00 436.00 62.00 C 436.00 46.00 436.00 30.00 436.00 14.00 C 432.91 14.00 429.83 14.00 426.75 14.00 C 426.75 11.17 426.75 8.33 426.75 5.50 Z" />
<path fill="#0066b3" opacity="1.00" d=" M 329.44 100.71 C 334.63 99.28 341.15 99.83 344.83 104.19 C 347.89 107.69 347.95 112.64 348.02 117.03 C 347.94 126.04 348.10 135.06 347.95 144.07 C 347.95 149.12 345.93 154.90 340.84 156.85 C 335.18 159.05 327.53 158.56 323.61 153.40 C 321.24 150.48 320.92 146.55 320.97 142.94 C 321.05 132.94 320.95 122.94 321.01 112.94 C 320.90 107.64 324.07 102.05 329.44 100.71 M 331.41 109.42 C 329.63 111.13 330.08 113.83 329.97 116.05 C 330.14 126.03 329.77 136.02 330.14 145.98 C 330.16 149.39 334.56 150.82 337.09 149.05 C 338.65 147.90 338.75 145.81 338.76 144.05 C 338.77 134.70 338.71 125.35 338.78 116.00 C 338.72 114.20 338.88 112.33 338.31 110.60 C 337.20 108.03 333.33 107.53 331.41 109.42 Z" />
<path fill="#0066b3" opacity="1.00" d=" M 513.39 100.69 C 518.00 99.42 523.37 99.81 527.30 102.73 C 530.65 105.38 531.83 109.85 531.76 113.96 C 531.73 124.33 531.77 134.70 531.75 145.07 C 531.81 150.07 529.12 155.37 524.20 157.09 C 519.02 158.81 512.58 158.46 508.44 154.56 C 504.98 150.98 504.73 145.69 504.73 141.00 C 504.85 131.70 504.58 122.39 504.86 113.10 C 504.84 107.75 507.91 102.04 513.39 100.69 M 516.42 108.65 C 514.30 109.42 513.94 111.91 514.00 113.87 C 513.97 123.58 514.03 133.30 513.97 143.02 C 514.06 144.92 513.77 147.18 515.25 148.67 C 517.73 151.11 522.79 149.44 522.65 145.70 C 522.93 136.13 522.63 126.55 522.78 116.97 C 522.66 114.71 523.11 112.25 521.96 110.19 C 520.85 108.33 518.32 107.88 516.42 108.65 Z" />
<path fill="#0066b3" opacity="1.00" d=" M 244.00 100.75 C 247.00 100.75 250.00 100.75 253.00 100.75 C 253.00 119.58 253.00 138.42 253.00 157.25 C 250.00 157.25 247.00 157.25 244.00 157.25 C 244.00 138.42 244.00 119.58 244.00 100.75 Z" />
<path fill="#0066b3" opacity="1.00" d=" M 259.50 100.75 C 263.25 100.75 267.01 100.75 270.76 100.76 C 273.50 111.59 276.13 122.45 279.12 133.21 C 279.41 122.39 279.18 111.57 279.25 100.75 C 281.91 100.75 284.58 100.75 287.25 100.75 C 287.25 119.58 287.25 138.42 287.25 157.25 C 284.16 157.25 281.08 157.25 278.00 157.25 C 274.55 143.69 271.05 130.14 267.53 116.61 C 267.46 130.15 267.52 143.70 267.50 157.25 C 264.83 157.25 262.16 157.25 259.50 157.25 C 259.50 138.42 259.50 119.58 259.50 100.75 Z" />
<path fill="#0066b3" opacity="1.00" d=" M 294.00 100.75 C 301.91 100.75 309.82 100.76 317.74 100.74 C 317.74 103.58 317.75 106.41 317.76 109.25 C 312.92 109.25 308.08 109.25 303.25 109.25 C 303.25 114.33 303.25 119.41 303.24 124.49 C 306.99 124.50 310.75 124.50 314.50 124.50 C 314.50 127.25 314.50 130.00 314.50 132.75 C 310.76 132.75 307.01 132.75 303.27 132.74 C 303.22 140.91 303.26 149.08 303.25 157.25 C 300.16 157.25 297.08 157.25 294.00 157.25 C 294.00 138.42 294.00 119.58 294.00 100.75 Z" />
<path fill="#0066b3" opacity="1.00" d=" M 353.75 100.76 C 360.02 100.95 366.41 100.17 372.59 101.53 C 376.84 102.55 379.72 106.64 379.97 110.90 C 380.58 116.98 380.94 124.70 375.10 128.47 C 378.59 130.39 380.15 134.25 380.15 138.10 C 380.57 144.48 379.64 150.95 380.98 157.26 C 377.89 157.25 374.81 157.25 371.73 157.24 C 370.80 151.22 371.51 145.11 371.17 139.06 C 371.08 137.02 370.58 134.51 368.49 133.60 C 366.62 133.11 364.66 133.27 362.76 133.14 C 362.74 141.18 362.75 149.21 362.75 157.25 C 359.75 157.25 356.75 157.25 353.75 157.25 C 353.75 138.42 353.75 119.59 353.75 100.76 M 362.76 109.18 C 362.74 114.51 362.75 119.83 362.75 125.15 C 365.07 124.84 367.77 125.29 369.71 123.70 C 371.47 121.57 370.93 118.61 371.06 116.05 C 370.97 113.74 371.27 110.71 368.80 109.47 C 366.80 109.15 364.77 109.24 362.76 109.18 Z" />
<path fill="#0066b3" opacity="1.00" d=" M 386.00 100.75 C 390.29 100.75 394.58 100.74 398.87 100.77 C 400.76 114.01 402.43 127.29 404.50 140.50 C 406.27 127.24 408.13 113.99 410.03 100.75 C 414.27 100.75 418.51 100.75 422.75 100.75 C 422.75 119.58 422.75 138.41 422.76 157.24 C 419.93 157.24 417.10 157.25 414.27 157.26 C 414.16 143.76 414.39 130.25 414.15 116.75 C 411.81 130.21 410.02 143.76 407.91 157.26 C 405.38 157.25 402.86 157.25 400.34 157.26 C 398.35 143.41 395.76 129.64 394.42 115.71 C 393.55 129.54 394.20 143.41 394.00 157.25 C 391.33 157.25 388.66 157.25 386.00 157.25 C 386.00 138.42 386.00 119.58 386.00 100.75 Z" />
<path fill="#0066b3" opacity="1.00" d=" M 426.66 157.24 C 429.78 138.42 432.81 119.58 435.86 100.75 C 439.90 100.75 443.95 100.75 447.99 100.75 C 451.10 119.58 454.10 138.42 457.20 157.25 C 454.16 157.25 451.13 157.25 448.09 157.26 C 447.56 153.60 447.04 149.95 446.53 146.29 C 443.29 146.39 439.92 145.80 436.77 146.61 C 436.00 150.11 435.71 153.71 435.17 157.25 C 432.33 157.25 429.49 157.25 426.66 157.24 M 437.82 138.50 C 440.35 138.50 442.89 138.50 445.44 138.51 C 444.12 129.45 442.93 120.37 441.54 111.31 C 440.33 120.38 439.04 129.44 437.82 138.50 Z" />
<path fill="#0066b3" opacity="1.00" d=" M 459.00 100.75 C 468.17 100.75 477.33 100.75 486.50 100.75 C 486.50 103.58 486.50 106.42 486.50 109.25 C 483.41 109.25 480.33 109.25 477.25 109.25 C 477.25 125.25 477.25 141.25 477.25 157.25 C 474.24 157.25 471.24 157.25 468.25 157.25 C 468.25 141.25 468.25 125.25 468.25 109.25 C 465.16 109.25 462.08 109.25 459.00 109.25 C 459.00 106.42 459.00 103.58 459.00 100.75 Z" />
<path fill="#0066b3" opacity="1.00" d=" M 490.00 100.75 C 493.00 100.75 496.00 100.75 499.00 100.75 C 499.00 119.58 499.00 138.42 499.00 157.25 C 496.00 157.25 493.00 157.25 490.00 157.25 C 490.00 138.42 490.00 119.58 490.00 100.75 Z" />
<path fill="#0066b3" opacity="1.00" d=" M 537.75 100.75 C 541.50 100.75 545.24 100.75 548.99 100.75 C 551.83 111.79 554.59 122.84 557.47 133.87 C 557.54 122.83 557.48 111.79 557.50 100.75 C 560.16 100.75 562.83 100.75 565.50 100.75 C 565.50 119.58 565.50 138.42 565.50 157.25 C 562.43 157.25 559.38 157.25 556.32 157.25 C 552.76 143.74 549.40 130.17 545.78 116.68 C 545.72 130.20 545.76 143.72 545.75 157.25 C 543.08 157.25 540.41 157.25 537.75 157.25 C 537.75 138.42 537.75 119.58 537.75 100.75 Z" />
<path fill="#0066b3" opacity="1.00" d=" M 593.43 101.52 C 598.44 100.31 603.65 100.86 608.75 100.76 C 608.75 103.59 608.75 106.42 608.75 109.26 C 604.67 109.44 600.48 108.78 596.48 109.61 C 593.30 111.87 594.68 116.55 594.62 119.89 C 594.92 124.03 599.70 123.79 602.72 123.89 C 602.74 121.76 602.74 119.63 602.76 117.50 C 605.75 117.50 608.75 117.50 611.75 117.50 C 611.75 119.57 611.74 121.65 611.75 123.73 C 612.38 123.74 613.63 123.76 614.25 123.77 C 614.24 126.51 614.24 129.24 614.25 131.98 C 613.63 131.99 612.37 132.01 611.75 132.02 C 612.07 140.43 610.97 148.95 612.56 157.27 C 609.56 157.25 606.56 157.25 603.56 157.25 C 603.32 155.88 603.08 154.52 602.85 153.17 C 600.05 159.01 591.09 159.82 587.32 154.62 C 583.99 149.77 585.17 143.54 585.01 138.02 C 584.83 133.68 587.03 129.44 590.97 127.47 C 585.15 124.38 584.70 116.99 585.59 111.22 C 586.10 106.86 589.03 102.62 593.43 101.52 M 594.74 134.63 C 593.53 138.53 593.85 142.77 594.26 146.78 C 594.98 150.98 601.71 150.56 602.43 146.56 C 603.17 141.73 602.57 136.77 602.75 131.89 C 600.01 132.11 596.00 131.45 594.74 134.63 Z" />
<path fill="#0066b3" opacity="1.00" d=" M 0.51 255.89 C 0.06 252.38 3.98 250.63 6.92 250.88 C 70.95 250.86 134.98 250.89 199.02 250.87 C 202.69 250.91 206.38 250.67 210.04 251.06 C 212.55 251.26 215.26 253.17 214.80 255.98 C 214.87 274.05 214.75 292.11 214.85 310.18 C 212.77 311.92 210.45 313.40 207.76 314.00 L 8.38 314.00 C 5.36 313.72 2.83 312.02 0.48 310.27 C 0.55 292.15 0.45 274.02 0.51 255.89 M 71.69 258.88 C 71.69 274.21 71.69 289.54 71.69 304.88 C 74.31 304.87 76.94 304.87 79.56 304.87 C 79.56 289.54 79.56 274.21 79.57 258.88 C 76.94 258.88 74.31 258.87 71.69 258.88 M 84.31 258.88 C 84.31 274.21 84.31 289.54 84.31 304.88 C 86.93 304.87 89.56 304.87 92.18 304.88 C 92.18 289.54 92.18 274.21 92.18 258.88 C 89.56 258.87 86.94 258.88 84.31 258.88 M 95.44 258.88 C 95.44 260.98 95.44 263.08 95.44 265.18 C 97.79 265.18 100.14 265.18 102.50 265.18 C 102.50 278.41 102.50 291.64 102.50 304.87 C 104.85 304.87 107.21 304.87 109.56 304.88 C 109.56 291.64 109.56 278.41 109.56 265.18 C 111.94 265.18 114.31 265.18 116.69 265.18 C 116.69 263.08 116.69 260.98 116.69 258.88 C 109.60 258.88 102.52 258.88 95.44 258.88 M 119.94 258.88 C 119.94 274.21 119.94 289.54 119.94 304.88 C 122.02 304.87 124.10 304.87 126.18 304.88 C 126.36 294.74 125.74 284.56 126.73 274.46 C 127.89 275.73 128.97 277.14 129.06 278.94 C 130.54 287.69 132.62 296.32 134.93 304.88 C 137.54 304.87 140.14 304.87 142.75 304.88 C 142.75 289.54 142.75 274.21 142.75 258.88 C 140.42 258.88 138.08 258.87 135.75 258.88 C 135.74 266.88 135.78 274.87 135.73 282.87 C 133.37 274.93 131.65 266.82 129.33 258.87 C 126.20 258.88 123.07 258.88 119.94 258.88 Z" />
<path fill="#0066b3" opacity="1.00" d=" M 295.56 271.49 C 296.79 271.49 298.02 271.49 299.26 271.50 C 297.41 281.70 295.14 291.82 293.58 302.07 C 292.45 302.29 291.32 302.51 290.20 302.75 C 290.14 302.25 290.03 301.25 289.98 300.75 C 288.13 301.75 285.81 304.07 283.70 302.34 C 280.90 300.61 280.76 296.82 281.08 293.90 C 281.71 287.50 286.76 281.07 293.71 281.55 C 294.29 278.19 294.93 274.84 295.56 271.49 M 284.94 297.06 C 284.93 298.71 286.75 299.05 287.80 299.86 C 292.32 295.96 291.77 289.50 293.02 284.16 C 287.19 285.14 284.33 291.72 284.94 297.06 Z" />
<path fill="#0066b3" opacity="1.00" d=" M 381.56 271.49 C 382.79 271.49 384.03 271.50 385.27 271.50 C 384.43 275.72 383.62 279.94 382.69 284.14 C 385.12 282.22 389.83 280.00 391.33 284.16 C 392.24 290.33 389.74 296.42 388.93 302.50 C 388.01 302.50 386.16 302.51 385.24 302.51 C 385.74 296.62 388.97 290.60 387.12 284.73 C 385.48 285.50 383.87 286.32 382.27 287.17 C 381.22 292.27 380.29 297.39 379.28 302.50 C 378.37 302.50 376.55 302.49 375.64 302.48 C 377.57 292.15 379.63 281.83 381.56 271.49 Z" />
<path fill="#0066b3" opacity="1.00" d=" M 454.84 281.52 C 455.40 278.17 456.04 274.83 456.67 271.49 C 457.60 271.50 459.44 271.51 460.36 271.52 C 458.50 281.76 456.31 291.93 454.59 302.19 C 453.44 302.35 452.30 302.52 451.17 302.69 C 451.23 302.13 451.35 301.00 451.41 300.44 C 449.57 301.49 447.56 303.82 445.24 302.61 C 441.74 300.72 441.66 296.01 442.38 292.58 C 443.42 286.62 448.45 281.18 454.84 281.52 M 446.23 292.92 C 445.84 295.23 445.36 298.50 448.06 299.63 C 449.70 298.96 451.49 297.82 451.92 295.97 C 452.85 292.07 453.49 288.10 454.16 284.15 C 449.79 284.89 446.98 288.77 446.23 292.92 Z" />
<path fill="#0066b3" opacity="1.00" d=" M 599.07 271.49 C 600.01 271.49 601.88 271.51 602.82 271.51 C 600.89 281.73 598.72 291.90 597.06 302.16 C 596.22 302.30 594.53 302.56 593.69 302.69 C 593.65 302.21 593.57 301.26 593.53 300.78 C 591.49 302.18 588.45 304.22 586.36 301.72 C 581.08 294.03 587.46 280.96 597.23 281.51 C 597.85 278.17 598.46 274.83 599.07 271.49 M 589.15 291.13 C 588.34 293.82 587.35 297.72 590.20 299.58 C 592.15 299.15 593.94 297.64 594.40 295.65 C 595.33 291.84 595.95 287.97 596.53 284.09 C 592.92 284.87 590.18 287.63 589.15 291.13 Z" />
<path fill="#0066b3" opacity="1.00" d=" M 278.35 273.40 C 280.32 271.10 283.69 275.49 280.84 276.81 C 278.69 278.66 276.19 274.90 278.35 273.40 Z" />
<path fill="#0066b3" opacity="1.00" d=" M 319.33 273.53 C 321.11 271.34 324.45 274.46 322.50 276.49 C 320.61 278.83 317.33 275.45 319.33 273.53 Z" />
<path fill="#0066b3" opacity="1.00" d=" M 645.36 273.50 C 647.60 270.87 650.84 275.76 647.87 276.96 C 645.70 278.28 643.64 275.07 645.36 273.50 Z" />
<path fill="#0066b3" opacity="1.00" d=" M 684.86 273.97 C 687.83 272.66 691.12 273.41 694.16 274.05 C 693.24 279.08 687.78 275.29 684.99 278.01 C 679.63 282.22 677.41 290.18 679.64 296.58 C 680.61 299.40 683.83 299.33 686.30 299.40 C 686.99 295.60 687.71 291.81 688.40 288.01 C 689.64 288.00 690.88 288.00 692.13 288.00 C 691.28 292.60 690.33 297.19 689.42 301.78 C 685.90 302.82 681.63 304.00 678.44 301.53 C 674.85 298.86 674.80 293.93 675.01 289.89 C 675.44 283.49 678.65 276.56 684.86 273.97 Z" />
<path fill="#0066b3" opacity="1.00" d=" M 249.97 273.70 C 253.53 273.87 258.15 273.12 260.55 276.43 C 263.11 280.44 260.61 285.94 256.29 287.44 C 261.81 288.51 262.08 296.20 258.42 299.44 C 254.71 303.02 249.13 302.48 244.39 302.52 C 246.25 292.91 248.13 283.31 249.97 273.70 M 253.13 276.67 C 252.46 279.89 251.85 283.12 251.33 286.37 C 254.55 285.99 258.35 283.92 257.78 280.12 C 257.85 277.57 255.03 277.10 253.13 276.67 M 248.70 299.52 C 250.74 299.06 252.96 298.91 254.77 297.74 C 256.77 296.40 257.53 293.61 256.66 291.41 C 255.70 289.07 252.83 289.28 250.80 288.70 C 250.06 292.30 249.32 295.90 248.70 299.52 Z" />
<path fill="#0066b3" opacity="1.00" d=" M 416.23 302.52 C 418.03 292.92 419.96 283.34 421.77 273.75 C 422.72 273.75 424.62 273.76 425.57 273.76 C 423.70 283.33 421.86 292.91 420.04 302.49 C 419.09 302.50 417.19 302.51 416.23 302.52 Z" />
<path fill="#0066b3" opacity="1.00" d=" M 545.22 273.79 C 546.09 273.77 547.82 273.73 548.69 273.71 C 549.82 283.27 550.83 292.85 551.84 302.42 C 550.84 302.45 548.84 302.51 547.84 302.53 C 547.66 299.93 547.47 297.34 547.26 294.75 C 544.49 294.75 541.73 294.75 538.97 294.75 C 537.75 297.35 536.54 299.96 535.33 302.57 C 534.33 302.52 532.34 302.44 531.34 302.39 C 535.96 292.85 540.58 283.31 545.22 273.79 M 546.00 279.31 C 544.05 283.44 542.18 287.62 540.27 291.77 C 542.52 291.75 544.78 291.75 547.04 291.75 C 546.66 287.60 546.41 283.45 546.00 279.31 Z" />
<path fill="#0066b3" opacity="1.00" d=" M 370.52 277.21 C 371.38 276.99 373.09 276.53 373.95 276.31 C 373.61 278.28 373.27 280.26 372.92 282.23 C 374.22 282.24 375.54 282.26 376.85 282.28 C 376.66 283.26 376.48 284.24 376.30 285.22 C 374.94 285.24 373.60 285.26 372.25 285.30 C 371.53 289.88 370.18 294.39 369.96 299.05 C 371.36 299.87 374.21 299.42 373.92 301.68 C 371.40 303.32 366.58 303.93 366.06 299.95 C 366.39 294.99 367.82 290.19 368.60 285.29 C 367.80 285.27 366.20 285.23 365.39 285.21 C 365.56 284.47 365.89 282.98 366.06 282.24 C 366.84 282.24 368.40 282.25 369.18 282.26 C 369.62 280.57 370.07 278.89 370.52 277.21 Z" />
<path fill="#0066b3" opacity="1.00" d=" M 492.93 277.12 C 493.78 276.92 495.48 276.53 496.33 276.33 C 495.95 278.30 495.57 280.27 495.18 282.24 C 496.20 282.24 498.24 282.25 499.26 282.26 C 499.03 283.26 498.80 284.27 498.58 285.28 C 497.25 285.26 495.93 285.24 494.61 285.23 C 493.74 289.95 492.55 294.64 492.30 299.45 C 494.29 299.18 495.74 299.81 496.65 301.32 C 494.31 302.95 490.15 304.16 488.54 300.93 C 488.34 295.61 490.12 290.46 490.99 285.26 C 490.20 285.25 488.61 285.25 487.81 285.24 C 487.93 284.50 488.15 283.02 488.26 282.28 C 489.07 282.27 490.68 282.25 491.48 282.24 C 491.96 280.53 492.45 278.82 492.93 277.12 Z" />
<path fill="#0066b3" opacity="1.00" d=" M 265.43 282.30 C 266.33 282.18 268.13 281.93 269.03 281.81 C 268.88 282.53 268.57 283.98 268.42 284.70 C 270.10 283.11 272.01 281.80 274.32 281.33 C 273.95 282.50 273.58 283.67 273.20 284.83 C 270.91 286.08 268.29 287.60 267.66 290.35 C 266.75 294.38 266.14 298.47 265.33 302.52 C 264.41 302.51 262.57 302.49 261.65 302.48 C 262.90 295.75 264.23 289.04 265.43 282.30 Z" />
<path fill="#0066b3" opacity="1.00" d=" M 276.48 282.25 C 277.71 282.25 278.93 282.25 280.17 282.25 C 278.86 289.00 277.56 295.75 276.23 302.50 C 275.31 302.50 273.48 302.49 272.56 302.49 C 273.86 295.74 275.19 289.00 276.48 282.25 Z" />
<path fill="#0066b3" opacity="1.00" d=" M 305.49 282.29 C 307.95 281.20 310.66 282.11 313.19 282.47 C 311.60 290.53 310.24 298.64 308.43 306.65 C 307.82 309.90 305.59 312.50 302.70 314.00 L 299.04 314.00 C 297.47 313.46 295.91 312.87 294.37 312.24 C 296.80 310.10 300.21 311.19 302.91 309.91 C 305.23 307.26 305.41 303.50 306.42 300.26 C 304.47 301.12 302.36 303.45 300.21 301.87 C 298.47 300.92 297.77 298.83 297.54 296.98 C 296.92 291.14 299.96 284.70 305.49 282.29 M 303.39 288.40 C 301.49 291.68 299.62 297.06 303.68 299.52 C 308.61 296.01 307.94 289.46 309.17 284.20 C 306.94 285.10 304.51 286.09 303.39 288.40 Z" />
<path fill="#0066b3" opacity="1.00" d=" M 317.67 282.24 C 318.89 282.24 320.11 282.25 321.33 282.26 C 320.05 289.01 318.69 295.75 317.44 302.50 C 316.20 302.50 314.96 302.50 313.73 302.50 C 315.05 295.75 316.33 288.99 317.67 282.24 Z" />
<path fill="#0066b3" opacity="1.00" d=" M 325.28 282.27 C 326.20 282.16 328.04 281.94 328.96 281.83 C 328.79 282.54 328.44 283.96 328.27 284.67 C 330.39 283.05 332.89 280.78 335.75 282.11 C 337.93 283.63 337.60 286.54 337.40 288.85 C 336.76 293.45 335.71 297.97 334.88 302.53 C 333.95 302.52 332.11 302.49 331.18 302.48 C 331.84 296.58 334.66 290.70 333.23 284.73 C 331.53 285.49 329.85 286.30 328.19 287.14 C 327.18 292.25 326.22 297.36 325.24 302.48 C 324.32 302.49 322.47 302.52 321.54 302.53 C 322.78 295.77 324.20 289.05 325.28 282.27 Z" />
<path fill="#0066b3" opacity="1.00" d=" M 345.72 282.74 C 348.35 281.09 351.51 282.04 354.36 282.40 C 352.79 290.55 351.40 298.73 349.56 306.82 C 349.01 309.96 346.67 312.19 344.22 314.00 L 340.46 314.00 C 339.08 313.65 337.71 313.28 336.34 312.89 C 336.65 312.27 337.25 311.03 337.55 310.41 C 339.79 310.34 342.74 311.55 344.42 309.47 C 346.32 306.89 346.66 303.58 347.62 300.61 C 345.36 301.72 342.02 303.71 340.21 300.80 C 336.53 294.75 339.81 286.13 345.72 282.74 M 344.09 299.55 C 345.67 298.27 347.99 297.29 348.35 295.05 C 349.22 291.46 349.74 287.79 350.32 284.14 C 344.16 285.82 340.19 294.14 344.09 299.55 Z" />
<path fill="#0066b3" opacity="1.00" d=" M 397.42 283.50 C 399.68 281.57 403.69 280.69 405.87 283.18 C 407.89 285.41 407.06 289.13 404.93 291.01 C 402.70 293.44 399.24 293.76 396.23 294.43 C 396.95 296.24 396.94 298.94 399.14 299.65 C 401.36 300.06 403.87 299.11 405.66 300.98 C 403.53 301.90 401.34 303.27 398.93 302.89 C 396.14 302.60 393.65 300.48 393.07 297.72 C 391.95 292.70 393.50 286.94 397.42 283.50 M 396.49 292.29 C 398.71 291.35 401.20 290.59 402.75 288.60 C 404.01 287.17 403.59 285.27 402.06 284.26 C 398.47 285.27 397.40 289.15 396.49 292.29 Z" />
<path fill="#0066b3" opacity="1.00" d=" M 428.69 282.38 C 429.90 282.16 431.13 281.96 432.36 281.76 C 432.25 282.40 432.04 283.67 431.93 284.31 C 433.76 283.16 435.65 281.31 438.01 281.81 C 440.51 281.96 441.14 284.93 441.00 286.96 C 440.61 292.22 439.17 297.33 438.32 302.52 C 437.39 302.51 435.53 302.48 434.60 302.46 C 435.45 296.94 437.32 291.51 437.19 285.89 C 435.40 284.41 432.99 286.17 431.70 287.53 C 430.32 292.43 429.72 297.51 428.68 302.49 C 427.45 302.50 426.21 302.50 424.99 302.52 C 426.18 295.80 427.62 289.12 428.69 282.38 Z" />
<path fill="#0066b3" opacity="1.00" d=" M 461.56 282.24 C 462.79 282.25 464.03 282.26 465.29 282.27 C 464.27 288.01 462.65 293.70 462.67 299.57 C 464.66 299.20 466.56 298.47 468.37 297.56 C 469.26 292.45 470.26 287.37 471.25 282.29 C 472.47 282.26 473.69 282.25 474.92 282.24 C 473.70 289.00 472.26 295.72 471.14 302.50 C 470.29 302.50 468.58 302.50 467.73 302.49 C 467.76 301.99 467.83 300.97 467.86 300.46 C 465.47 302.26 462.62 303.61 459.65 302.32 C 457.89 295.59 460.64 288.88 461.56 282.24 Z" />
<path fill="#0066b3" opacity="1.00" d=" M 476.09 286.02 C 477.22 281.18 483.25 281.16 487.03 282.59 C 485.93 285.47 482.74 284.76 480.35 285.26 C 480.14 285.97 479.71 287.38 479.49 288.08 C 481.79 291.49 486.27 295.19 483.97 299.71 C 481.94 303.73 476.84 303.19 473.22 302.11 C 473.52 301.48 474.13 300.22 474.43 299.59 C 476.61 299.67 479.73 300.52 480.89 297.99 C 480.75 293.42 474.41 290.98 476.09 286.02 Z" />
<path fill="#0066b3" opacity="1.00" d=" M 501.68 282.37 C 502.87 282.16 504.07 281.96 505.27 281.77 C 505.18 282.45 504.99 283.82 504.89 284.50 C 506.50 282.96 508.42 281.88 510.59 281.31 C 510.22 282.48 509.84 283.64 509.46 284.81 C 507.27 286.08 504.69 287.51 504.00 290.15 C 503.04 294.24 502.44 298.40 501.64 302.52 C 500.40 302.51 499.17 302.50 497.94 302.49 C 499.17 295.78 500.55 289.10 501.68 282.37 Z" />
<path fill="#0066b3" opacity="1.00" d=" M 521.85 282.26 C 523.17 282.25 524.50 282.24 525.83 282.24 C 521.85 290.83 518.13 299.54 514.06 308.09 C 512.73 311.19 509.87 313.24 506.64 314.00 L 505.06 314.00 C 507.61 310.03 512.42 307.22 512.67 302.05 C 512.32 295.40 511.09 288.83 510.42 282.22 C 511.40 282.23 513.38 282.26 514.36 282.28 C 514.68 287.57 515.07 292.86 515.36 298.16 C 517.52 292.86 519.72 287.57 521.85 282.26 Z" />
<path fill="#0066b3" opacity="1.00" d=" M 560.81 282.77 C 563.05 281.21 565.87 281.91 568.40 282.04 C 567.97 282.91 567.54 283.79 567.12 284.68 C 559.89 284.19 556.62 294.39 560.52 299.42 C 562.76 300.01 565.46 298.73 567.14 300.94 C 564.65 302.09 561.82 303.74 559.02 302.55 C 556.06 301.40 554.96 297.98 554.98 295.06 C 554.98 290.42 556.72 285.34 560.81 282.77 Z" />
<path fill="#0066b3" opacity="1.00" d=" M 574.82 282.83 C 577.50 281.10 580.76 281.81 583.64 282.56 C 582.49 289.21 580.99 295.80 580.17 302.50 C 579.29 302.50 577.55 302.49 576.67 302.49 C 576.75 301.94 576.91 300.84 576.99 300.28 C 575.08 302.20 571.66 304.42 569.57 301.45 C 565.78 295.33 568.85 286.44 574.82 282.83 M 574.11 288.03 C 571.95 291.53 570.26 296.77 573.75 300.01 C 574.98 298.95 576.21 297.89 577.42 296.79 C 578.09 292.58 579.03 288.41 579.60 284.19 C 577.52 285.05 575.24 285.93 574.11 288.03 Z" />
<path fill="#0066b3" opacity="1.00" d=" M 600.97 295.09 C 600.67 289.22 604.31 281.50 611.04 281.71 C 615.16 281.67 616.51 287.26 614.07 290.01 C 611.91 293.15 607.96 293.80 604.49 294.41 C 604.97 295.89 605.19 297.53 606.12 298.83 C 607.90 300.65 610.59 299.61 612.76 299.43 C 613.60 302.40 610.15 302.75 608.01 302.96 C 603.82 303.10 600.73 299.07 600.97 295.09 M 604.84 292.28 C 607.33 291.23 610.34 290.26 611.56 287.60 C 612.24 286.17 610.76 285.03 610.24 283.88 C 607.13 285.66 605.45 288.85 604.84 292.28 Z" />
<path fill="#0066b3" opacity="1.00" d=" M 618.24 282.30 C 619.14 282.18 620.96 281.94 621.86 281.82 C 621.78 282.46 621.62 283.72 621.54 284.36 C 622.98 283.36 624.30 281.98 626.12 281.70 C 627.79 281.63 628.73 283.13 629.81 284.16 C 632.06 282.17 636.77 280.05 638.18 284.06 C 639.18 290.25 636.64 296.38 635.84 302.50 C 634.92 302.50 633.10 302.50 632.19 302.49 C 632.96 297.06 634.86 291.73 634.69 286.20 C 633.74 283.91 631.20 286.18 630.04 287.19 C 628.70 292.21 628.13 297.43 626.98 302.51 C 626.08 302.50 624.29 302.48 623.39 302.47 C 624.00 296.55 626.87 290.64 625.39 284.68 C 623.94 285.49 622.53 286.34 621.11 287.20 C 620.14 292.29 619.15 297.39 618.19 302.49 C 617.28 302.50 615.45 302.52 614.54 302.53 C 615.76 295.78 617.22 289.08 618.24 282.30 Z" />
<path fill="#0066b3" opacity="1.00" d=" M 643.66 282.26 C 644.88 282.25 646.10 282.24 647.34 282.23 C 646.06 288.99 644.74 295.75 643.43 302.51 C 642.19 302.50 640.95 302.50 639.73 302.49 C 641.07 295.76 642.36 289.01 643.66 282.26 Z" />
<path fill="#0066b3" opacity="1.00" d=" M 654.89 282.92 C 657.56 281.05 660.91 281.84 663.83 282.54 C 662.65 289.20 661.16 295.81 660.33 302.53 C 659.49 302.52 657.81 302.50 656.97 302.49 L 657.10 300.50 C 655.05 302.28 651.65 304.40 649.64 301.34 C 646.01 295.28 649.04 286.53 654.89 282.92 M 654.61 287.55 C 652.25 291.08 650.43 296.49 653.78 300.00 C 655.05 298.99 656.32 297.97 657.56 296.92 C 658.25 292.67 659.13 288.46 659.82 284.21 C 657.97 285.09 655.68 285.61 654.61 287.55 Z" />
<path fill="#0066b3" opacity="1.00" d=" M 700.95 282.83 C 703.61 281.05 706.89 281.84 709.77 282.55 C 708.61 289.27 707.07 295.93 706.30 302.71 C 704.70 302.54 702.82 302.65 702.64 300.58 C 700.89 302.66 697.50 304.15 695.61 301.39 C 691.94 295.25 694.99 286.41 700.95 282.83 M 697.91 298.00 C 698.46 298.45 699.56 299.35 700.11 299.80 C 701.33 298.60 703.20 297.74 703.60 295.92 C 704.48 292.05 705.10 288.12 705.76 284.21 C 699.60 285.52 697.52 292.47 697.91 298.00 Z" />
<path fill="#0066b3" opacity="1.00" d=" M 713.69 282.39 C 714.87 282.17 716.05 281.96 717.24 281.76 C 717.21 282.28 717.15 283.31 717.12 283.82 C 719.35 282.39 722.75 280.39 724.72 283.34 C 729.31 291.21 723.08 303.52 713.52 303.26 C 712.90 306.69 712.24 310.12 711.58 313.56 C 710.66 313.53 708.81 313.49 707.89 313.47 C 709.78 303.10 712.02 292.79 713.69 282.39 M 716.34 289.05 C 715.46 292.80 714.83 296.60 714.18 300.39 C 718.91 299.87 721.61 295.24 722.23 290.93 C 722.69 288.75 722.60 285.76 720.05 285.02 C 718.44 285.92 716.62 287.07 716.34 289.05 Z" />
</g>
</svg>
